<svg xmlns="http://www.w3.org/2000/svg" viewBox="0 0 3000 520" preserveAspectRatio="xMidYMid slice" role="img" aria-label="Panoramic futuristic desert night with twin moons, a constellation and a glowing tech grid">
<defs>
  <linearGradient id="sky-n" x1="0" y1="0" x2="0" y2="1">
    <stop offset="0" stop-color="#0d0a16"/><stop offset="0.5" stop-color="#1b1326"/>
    <stop offset="0.74" stop-color="#2a1a1e"/><stop offset="1" stop-color="#1A1008"/>
  </linearGradient>
  <linearGradient id="moon-n" x1="0" y1="0" x2="0" y2="1">
    <stop offset="0" stop-color="#F3EAFE"/><stop offset="0.5" stop-color="#C9CFE8"/><stop offset="1" stop-color="#8a93c4"/>
  </linearGradient>
  <radialGradient id="mglow-n" cx="50%" cy="50%" r="50%">
    <stop offset="0" stop-color="#5b7fb0" stop-opacity="0.5"/><stop offset="0.5" stop-color="#5b7fb0" stop-opacity="0.16"/><stop offset="1" stop-color="#5b7fb0" stop-opacity="0"/>
  </radialGradient>
  <linearGradient id="floorfade-n" x1="0" y1="0" x2="0" y2="1">
    <stop offset="0" stop-color="#1A1008" stop-opacity="0"/><stop offset="1" stop-color="#1A1008" stop-opacity="0.85"/>
  </linearGradient>
  <radialGradient id="vig-n" cx="50%" cy="48%" r="72%">
    <stop offset="0.6" stop-color="#1A1008" stop-opacity="0"/><stop offset="1" stop-color="#1A1008" stop-opacity="0.6"/>
  </radialGradient>
  <filter id="blur-n" x="-40%" y="-40%" width="180%" height="180%"><feGaussianBlur stdDeviation="6"/></filter>
</defs>
<rect width="3000" height="520" fill="url(#sky-n)"/>
<circle cx="1718" cy="73" r="0.64" fill="#F5E6C8" opacity="0.88"/><circle cx="238" cy="140" r="1.00" fill="#F5E6C8" opacity="0.35"/><circle cx="1496" cy="145" r="1.76" fill="#F5E6C8" opacity="0.79"/><circle cx="1505" cy="63" r="1.16" fill="#F5E6C8" opacity="0.53"/><circle cx="85" cy="149" r="1.20" fill="#F5E6C8" opacity="0.81"/><circle cx="2385" cy="196" r="1.75" fill="#F5E6C8" opacity="0.87"/><circle cx="2979" cy="240" r="1.14" fill="#F5E6C8" opacity="0.71"/><circle cx="2520" cy="69" r="0.92" fill="#F5E6C8" opacity="0.62"/><circle cx="525" cy="172" r="1.99" fill="#F5E6C8" opacity="0.67"/><circle cx="2072" cy="168" r="1.13" fill="#F5E6C8" opacity="0.38"/><circle cx="2753" cy="98" r="0.70" fill="#F5E6C8" opacity="0.51"/><circle cx="2262" cy="116" r="0.73" fill="#F5E6C8" opacity="0.95"/><circle cx="253" cy="265" r="0.66" fill="#F5E6C8" opacity="0.92"/><circle cx="468" cy="138" r="1.78" fill="#F5E6C8" opacity="0.71"/><circle cx="2901" cy="96" r="1.83" fill="#F5E6C8" opacity="0.35"/><circle cx="652" cy="232" r="2.13" fill="#F5E6C8" opacity="0.90"/><circle cx="53" cy="225" r="1.40" fill="#F5E6C8" opacity="0.33"/><circle cx="766" cy="113" r="0.88" fill="#F5E6C8" opacity="0.41"/><circle cx="2541" cy="164" r="1.08" fill="#F5E6C8" opacity="0.45"/><circle cx="2540" cy="114" r="1.78" fill="#F5E6C8" opacity="0.30"/><circle cx="1189" cy="198" r="2.00" fill="#F5E6C8" opacity="0.76"/><circle cx="2346" cy="51" r="1.30" fill="#F5E6C8" opacity="0.45"/><circle cx="355" cy="50" r="2.17" fill="#F5E6C8" opacity="0.81"/><circle cx="2861" cy="23" r="1.78" fill="#F5E6C8" opacity="0.35"/><circle cx="2264" cy="127" r="2.20" fill="#F5E6C8" opacity="0.45"/><circle cx="2946" cy="280" r="1.65" fill="#F5E6C8" opacity="0.60"/><circle cx="2912" cy="38" r="1.36" fill="#F5E6C8" opacity="0.27"/><circle cx="747" cy="213" r="1.64" fill="#F5E6C8" opacity="0.91"/><circle cx="1094" cy="225" r="1.95" fill="#F5E6C8" opacity="0.29"/><circle cx="2876" cy="41" r="1.47" fill="#F5E6C8" opacity="0.69"/><circle cx="743" cy="180" r="0.76" fill="#F5E6C8" opacity="0.52"/><circle cx="2872" cy="228" r="2.01" fill="#F5E6C8" opacity="0.44"/><circle cx="566" cy="98" r="1.41" fill="#F5E6C8" opacity="0.31"/><circle cx="734" cy="231" r="1.86" fill="#F5E6C8" opacity="0.87"/><circle cx="1611" cy="65" r="1.87" fill="#F5E6C8" opacity="0.35"/><circle cx="1448" cy="120" r="1.37" fill="#F5E6C8" opacity="0.46"/><circle cx="177" cy="148" r="1.49" fill="#F5E6C8" opacity="0.70"/><circle cx="1235" cy="161" r="0.81" fill="#F5E6C8" opacity="0.67"/><circle cx="1234" cy="246" r="1.57" fill="#F5E6C8" opacity="0.85"/><circle cx="2692" cy="186" r="1.48" fill="#F5E6C8" opacity="0.54"/><circle cx="1872" cy="275" r="1.32" fill="#F5E6C8" opacity="0.34"/><circle cx="351" cy="29" r="2.00" fill="#F5E6C8" opacity="0.81"/><circle cx="2663" cy="23" r="0.66" fill="#F5E6C8" opacity="0.61"/><circle cx="2007" cy="199" r="1.44" fill="#F5E6C8" opacity="0.58"/><circle cx="1" cy="284" r="1.13" fill="#F5E6C8" opacity="0.80"/><circle cx="237" cy="185" r="2.08" fill="#F5E6C8" opacity="0.26"/><circle cx="560" cy="95" r="1.90" fill="#F5E6C8" opacity="0.29"/><circle cx="2681" cy="69" r="1.65" fill="#F5E6C8" opacity="0.84"/><circle cx="565" cy="180" r="1.45" fill="#F5E6C8" opacity="0.94"/><circle cx="1995" cy="126" r="1.18" fill="#F5E6C8" opacity="0.42"/><circle cx="2798" cy="261" r="1.85" fill="#F5E6C8" opacity="0.87"/><circle cx="1330" cy="49" r="1.25" fill="#F5E6C8" opacity="0.93"/><circle cx="2678" cy="100" r="1.85" fill="#F5E6C8" opacity="0.56"/><circle cx="1915" cy="280" r="2.16" fill="#F5E6C8" opacity="0.55"/><circle cx="2347" cy="80" r="0.80" fill="#F5E6C8" opacity="0.45"/><circle cx="462" cy="83" r="1.34" fill="#F5E6C8" opacity="0.39"/><circle cx="2095" cy="71" r="1.23" fill="#F5E6C8" opacity="0.89"/><circle cx="297" cy="224" r="1.42" fill="#F5E6C8" opacity="0.64"/><circle cx="2203" cy="143" r="1.38" fill="#F5E6C8" opacity="0.50"/><circle cx="2786" cy="138" r="2.10" fill="#F5E6C8" opacity="0.53"/><circle cx="2321" cy="202" r="1.02" fill="#F5E6C8" opacity="0.50"/><circle cx="1041" cy="206" r="2.22" fill="#F5E6C8" opacity="0.83"/><circle cx="2421" cy="277" r="2.16" fill="#F5E6C8" opacity="0.86"/><circle cx="2069" cy="284" r="1.44" fill="#F5E6C8" opacity="0.76"/><circle cx="1549" cy="93" r="1.22" fill="#F5E6C8" opacity="0.55"/><circle cx="2715" cy="286" r="1.14" fill="#F5E6C8" opacity="0.78"/><circle cx="1898" cy="131" r="1.01" fill="#F5E6C8" opacity="0.37"/><circle cx="1063" cy="226" r="0.73" fill="#F5E6C8" opacity="0.44"/><circle cx="436" cy="195" r="1.07" fill="#F5E6C8" opacity="0.92"/><circle cx="183" cy="263" r="1.99" fill="#F5E6C8" opacity="0.49"/><circle cx="2353" cy="138" r="1.65" fill="#F5E6C8" opacity="0.90"/><circle cx="312" cy="133" r="1.45" fill="#F5E6C8" opacity="0.31"/><circle cx="2216" cy="182" r="1.84" fill="#F5E6C8" opacity="0.38"/><circle cx="947" cy="155" r="1.35" fill="#F5E6C8" opacity="0.28"/><circle cx="2745" cy="150" r="1.25" fill="#F5E6C8" opacity="0.82"/><circle cx="2394" cy="243" r="2.00" fill="#F5E6C8" opacity="0.49"/><circle cx="2170" cy="280" r="2.29" fill="#F5E6C8" opacity="0.60"/><circle cx="60" cy="111" r="2.10" fill="#F5E6C8" opacity="0.46"/><circle cx="1893" cy="171" r="0.81" fill="#F5E6C8" opacity="0.92"/><circle cx="232" cy="183" r="1.90" fill="#F5E6C8" opacity="0.39"/><circle cx="2768" cy="106" r="0.85" fill="#F5E6C8" opacity="0.41"/><circle cx="1975" cy="244" r="0.80" fill="#F5E6C8" opacity="0.70"/><circle cx="1076" cy="138" r="1.98" fill="#F5E6C8" opacity="0.40"/><circle cx="1159" cy="183" r="1.22" fill="#F5E6C8" opacity="0.94"/><circle cx="731" cy="270" r="0.88" fill="#F5E6C8" opacity="0.85"/><circle cx="549" cy="232" r="0.76" fill="#F5E6C8" opacity="0.87"/><circle cx="2234" cy="248" r="2.24" fill="#F5E6C8" opacity="0.85"/><circle cx="1313" cy="203" r="1.94" fill="#F5E6C8" opacity="0.50"/><circle cx="441" cy="223" r="1.90" fill="#F5E6C8" opacity="0.55"/><circle cx="1311" cy="63" r="1.49" fill="#F5E6C8" opacity="0.65"/><circle cx="1137" cy="112" r="0.97" fill="#F5E6C8" opacity="0.32"/><circle cx="130" cy="70" r="2.10" fill="#F5E6C8" opacity="0.63"/><circle cx="5" cy="148" r="1.50" fill="#F5E6C8" opacity="0.31"/><circle cx="2669" cy="95" r="1.45" fill="#F5E6C8" opacity="0.76"/><circle cx="2944" cy="142" r="0.78" fill="#F5E6C8" opacity="0.73"/><circle cx="1078" cy="279" r="1.65" fill="#F5E6C8" opacity="0.57"/><circle cx="2182" cy="97" r="1.28" fill="#F5E6C8" opacity="0.88"/><circle cx="598" cy="142" r="1.47" fill="#F5E6C8" opacity="0.73"/><circle cx="211" cy="162" r="2.01" fill="#F5E6C8" opacity="0.25"/><circle cx="1504" cy="18" r="0.61" fill="#F5E6C8" opacity="0.36"/><circle cx="557" cy="83" r="1.95" fill="#F5E6C8" opacity="0.83"/><circle cx="2612" cy="55" r="2.13" fill="#F5E6C8" opacity="0.45"/><circle cx="2460" cy="224" r="0.78" fill="#F5E6C8" opacity="0.57"/><circle cx="0" cy="28" r="2.27" fill="#F5E6C8" opacity="0.71"/><circle cx="104" cy="70" r="1.29" fill="#F5E6C8" opacity="0.74"/><circle cx="2688" cy="66" r="1.32" fill="#F5E6C8" opacity="0.63"/><circle cx="1433" cy="91" r="1.68" fill="#F5E6C8" opacity="0.72"/><circle cx="1263" cy="177" r="2.28" fill="#F5E6C8" opacity="0.60"/><circle cx="1361" cy="33" r="1.29" fill="#F5E6C8" opacity="0.64"/><circle cx="947" cy="239" r="1.62" fill="#F5E6C8" opacity="0.66"/><circle cx="1881" cy="203" r="2.02" fill="#F5E6C8" opacity="0.32"/><circle cx="973" cy="111" r="0.95" fill="#F5E6C8" opacity="0.57"/><circle cx="708" cy="175" r="2.07" fill="#F5E6C8" opacity="0.30"/><circle cx="237" cy="250" r="1.60" fill="#F5E6C8" opacity="0.71"/><circle cx="2621" cy="60" r="2.02" fill="#F5E6C8" opacity="0.30"/><circle cx="935" cy="182" r="1.04" fill="#F5E6C8" opacity="0.59"/><circle cx="1239" cy="138" r="2.28" fill="#F5E6C8" opacity="0.34"/><circle cx="2611" cy="97" r="0.99" fill="#F5E6C8" opacity="0.81"/><circle cx="918" cy="46" r="1.08" fill="#F5E6C8" opacity="0.44"/><circle cx="2321" cy="21" r="1.01" fill="#F5E6C8" opacity="0.29"/><circle cx="2553" cy="154" r="1.73" fill="#F5E6C8" opacity="0.44"/><circle cx="1881" cy="241" r="1.53" fill="#F5E6C8" opacity="0.63"/><circle cx="1166" cy="46" r="1.43" fill="#F5E6C8" opacity="0.37"/><circle cx="2515" cy="64" r="1.96" fill="#F5E6C8" opacity="0.43"/><circle cx="1754" cy="118" r="0.84" fill="#F5E6C8" opacity="0.28"/><circle cx="534" cy="151" r="0.66" fill="#F5E6C8" opacity="0.73"/><circle cx="1189" cy="139" r="1.39" fill="#F5E6C8" opacity="0.42"/><circle cx="1257" cy="90" r="2.17" fill="#F5E6C8" opacity="0.25"/><circle cx="2649" cy="110" r="1.81" fill="#F5E6C8" opacity="0.71"/><circle cx="2512" cy="38" r="1.29" fill="#F5E6C8" opacity="0.81"/><circle cx="2600" cy="134" r="1.60" fill="#F5E6C8" opacity="0.92"/><circle cx="311" cy="175" r="1.66" fill="#F5E6C8" opacity="0.64"/><circle cx="480" cy="147" r="0.69" fill="#F5E6C8" opacity="0.33"/><circle cx="471" cy="59" r="2.25" fill="#F5E6C8" opacity="0.93"/><circle cx="266" cy="207" r="1.69" fill="#F5E6C8" opacity="0.57"/><circle cx="2684" cy="288" r="1.97" fill="#F5E6C8" opacity="0.54"/><circle cx="2539" cy="285" r="1.72" fill="#F5E6C8" opacity="0.95"/><circle cx="2073" cy="95" r="2.10" fill="#F5E6C8" opacity="0.78"/><circle cx="2624" cy="169" r="1.22" fill="#F5E6C8" opacity="0.92"/><circle cx="939" cy="48" r="0.88" fill="#F5E6C8" opacity="0.41"/><circle cx="1142" cy="16" r="0.93" fill="#F5E6C8" opacity="0.95"/><circle cx="2249" cy="80" r="1.00" fill="#F5E6C8" opacity="0.45"/><circle cx="2026" cy="65" r="1.09" fill="#F5E6C8" opacity="0.27"/><circle cx="1563" cy="28" r="0.96" fill="#F5E6C8" opacity="0.32"/><circle cx="717" cy="67" r="2.17" fill="#F5E6C8" opacity="0.53"/><circle cx="2271" cy="39" r="1.28" fill="#F5E6C8" opacity="0.71"/><circle cx="2836" cy="55" r="1.88" fill="#F5E6C8" opacity="0.58"/><circle cx="1590" cy="69" r="2.08" fill="#F5E6C8" opacity="0.40"/><circle cx="1084" cy="54" r="1.13" fill="#F5E6C8" opacity="0.67"/><circle cx="1900" cy="72" r="1.16" fill="#F5E6C8" opacity="0.27"/><circle cx="1974" cy="149" r="1.01" fill="#F5E6C8" opacity="0.31"/><circle cx="86" cy="97" r="1.50" fill="#F5E6C8" opacity="0.34"/><circle cx="640" cy="99" r="1.84" fill="#F5E6C8" opacity="0.41"/><circle cx="2978" cy="243" r="1.09" fill="#F5E6C8" opacity="0.55"/><circle cx="1838" cy="147" r="0.81" fill="#F5E6C8" opacity="0.63"/><circle cx="2196" cy="73" r="1.03" fill="#F5E6C8" opacity="0.70"/><circle cx="935" cy="259" r="0.67" fill="#F5E6C8" opacity="0.34"/><circle cx="230" cy="36" r="2.27" fill="#F5E6C8" opacity="0.45"/><circle cx="855" cy="41" r="1.50" fill="#F5E6C8" opacity="0.68"/><circle cx="109" cy="44" r="1.85" fill="#F5E6C8" opacity="0.48"/><circle cx="2204" cy="145" r="1.11" fill="#F5E6C8" opacity="0.65"/><circle cx="275" cy="253" r="1.04" fill="#F5E6C8" opacity="0.94"/><circle cx="972" cy="140" r="1.09" fill="#F5E6C8" opacity="0.82"/><circle cx="2053" cy="99" r="1.95" fill="#F5E6C8" opacity="0.68"/><circle cx="297" cy="222" r="1.06" fill="#F5E6C8" opacity="0.27"/><circle cx="1957" cy="30" r="1.85" fill="#F5E6C8" opacity="0.64"/><circle cx="2872" cy="236" r="1.03" fill="#F5E6C8" opacity="0.41"/><circle cx="101" cy="76" r="1.30" fill="#F5E6C8" opacity="0.54"/><circle cx="2973" cy="60" r="0.70" fill="#F5E6C8" opacity="0.36"/><circle cx="410" cy="175" r="0.81" fill="#F5E6C8" opacity="0.65"/><circle cx="23" cy="219" r="1.79" fill="#F5E6C8" opacity="0.47"/><circle cx="606" cy="137" r="2.05" fill="#F5E6C8" opacity="0.79"/><circle cx="373" cy="33" r="1.43" fill="#F5E6C8" opacity="0.35"/><circle cx="1375" cy="92" r="1.09" fill="#F5E6C8" opacity="0.36"/><circle cx="669" cy="45" r="2.12" fill="#F5E6C8" opacity="0.87"/><circle cx="430" cy="75" r="1.78" fill="#F5E6C8" opacity="0.64"/><circle cx="465" cy="19" r="1.60" fill="#F5E6C8" opacity="0.86"/><circle cx="1981" cy="60" r="1.95" fill="#F5E6C8" opacity="0.48"/><circle cx="1789" cy="58" r="1.63" fill="#F5E6C8" opacity="0.49"/><circle cx="1541" cy="126" r="2.13" fill="#F5E6C8" opacity="0.69"/><circle cx="2107" cy="262" r="0.60" fill="#F5E6C8" opacity="0.88"/><circle cx="631" cy="25" r="1.06" fill="#F5E6C8" opacity="0.34"/><circle cx="446" cy="114" r="1.84" fill="#F5E6C8" opacity="0.66"/><circle cx="2449" cy="279" r="1.40" fill="#F5E6C8" opacity="0.34"/>
<g stroke="#7fd4d4" stroke-width="1" opacity="0.5"><line x1="643" y1="265" x2="607" y2="169"/><line x1="607" y1="169" x2="754" y2="167"/><line x1="754" y1="167" x2="677" y2="144"/><line x1="677" y1="144" x2="588" y2="185"/></g><g opacity="0.9"><circle cx="643" cy="265" r="2.4" fill="#7fd4d4"/><circle cx="607" cy="169" r="2.4" fill="#7fd4d4"/><circle cx="754" cy="167" r="2.4" fill="#7fd4d4"/><circle cx="677" cy="144" r="2.4" fill="#7fd4d4"/><circle cx="588" cy="185" r="2.4" fill="#7fd4d4"/></g>
<circle cx="1680" cy="228" r="222" fill="url(#mglow-n)" opacity="1"/>
     <circle cx="1680" cy="228" r="74" fill="url(#moon-n)"/><circle cx="840" cy="214" r="108" fill="url(#mglow-n)" opacity="0.7"/>
     <circle cx="840" cy="214" r="36" fill="url(#moon-n)"/>
<g stroke="#7fd4d4" stroke-width="1.4" opacity="0.45"><line x1="1500" y1="322" x2="-1500" y2="520"/><line x1="1500" y1="322" x2="-1360" y2="520"/><line x1="1500" y1="322" x2="-1220" y2="520"/><line x1="1500" y1="322" x2="-1080" y2="520"/><line x1="1500" y1="322" x2="-940" y2="520"/><line x1="1500" y1="322" x2="-800" y2="520"/><line x1="1500" y1="322" x2="-660" y2="520"/><line x1="1500" y1="322" x2="-520" y2="520"/><line x1="1500" y1="322" x2="-380" y2="520"/><line x1="1500" y1="322" x2="-240" y2="520"/><line x1="1500" y1="322" x2="-100" y2="520"/><line x1="1500" y1="322" x2="40" y2="520"/><line x1="1500" y1="322" x2="180" y2="520"/><line x1="1500" y1="322" x2="320" y2="520"/><line x1="1500" y1="322" x2="460" y2="520"/><line x1="1500" y1="322" x2="600" y2="520"/><line x1="1500" y1="322" x2="740" y2="520"/><line x1="1500" y1="322" x2="880" y2="520"/><line x1="1500" y1="322" x2="1020" y2="520"/><line x1="1500" y1="322" x2="1160" y2="520"/><line x1="1500" y1="322" x2="1300" y2="520"/><line x1="1500" y1="322" x2="1440" y2="520"/><line x1="1500" y1="322" x2="1580" y2="520"/><line x1="1500" y1="322" x2="1720" y2="520"/><line x1="1500" y1="322" x2="1860" y2="520"/><line x1="1500" y1="322" x2="2000" y2="520"/><line x1="1500" y1="322" x2="2140" y2="520"/><line x1="1500" y1="322" x2="2280" y2="520"/><line x1="1500" y1="322" x2="2420" y2="520"/><line x1="1500" y1="322" x2="2560" y2="520"/><line x1="1500" y1="322" x2="2700" y2="520"/><line x1="1500" y1="322" x2="2840" y2="520"/><line x1="1500" y1="322" x2="2980" y2="520"/><line x1="1500" y1="322" x2="3120" y2="520"/><line x1="1500" y1="322" x2="3260" y2="520"/><line x1="1500" y1="322" x2="3400" y2="520"/><line x1="1500" y1="322" x2="3540" y2="520"/><line x1="1500" y1="322" x2="3680" y2="520"/><line x1="1500" y1="322" x2="3820" y2="520"/><line x1="1500" y1="322" x2="3960" y2="520"/><line x1="1500" y1="322" x2="4100" y2="520"/><line x1="1500" y1="322" x2="4240" y2="520"/><line x1="1500" y1="322" x2="4380" y2="520"/><line x1="0" y1="326" x2="3000" y2="326"/><line x1="0" y1="333" x2="3000" y2="333"/><line x1="0" y1="343" x2="3000" y2="343"/><line x1="0" y1="357" x2="3000" y2="357"/><line x1="0" y1="376" x2="3000" y2="376"/><line x1="0" y1="402" x2="3000" y2="402"/><line x1="0" y1="437" x2="3000" y2="437"/><line x1="0" y1="484" x2="3000" y2="484"/><line x1="0" y1="520" x2="3000" y2="520"/></g>
<rect x="0" y="322" width="3000" height="198" fill="url(#floorfade-n)"/>
<rect x="0" y="319" width="3000" height="6" fill="#7fd4d4" opacity="0.5" filter="url(#blur-n)"/>
<path d="M0 338 L0 303 L150 305 L300 317 L450 302 L600 310 L750 319 L900 311 L1050 325 L1200 323 L1350 322 L1500 309 L1650 313 L1800 325 L1950 313 L2100 324 L2250 300 L2400 317 L2550 318 L2700 319 L2850 315 L3000 317 L3000 520 L0 520 Z" fill="#120c14"/>
<rect width="3000" height="520" fill="url(#vig-n)"/>
</svg>
