<svg xmlns="http://www.w3.org/2000/svg" viewBox="0 0 2800 700" preserveAspectRatio="xMidYMid slice" role="img" aria-label="Panoramic futuristic desert night with twin moons, a constellation and a glowing tech grid">
<defs>
  <linearGradient id="sky-n" x1="0" y1="0" x2="0" y2="1">
    <stop offset="0" stop-color="#0d0a16"/><stop offset="0.45" stop-color="#1b1326"/>
    <stop offset="0.72" stop-color="#2a1a1e"/><stop offset="1" stop-color="#1A1008"/>
  </linearGradient>
  <linearGradient id="moon-n" x1="0" y1="0" x2="0" y2="1">
    <stop offset="0" stop-color="#F3EAFE"/><stop offset="0.5" stop-color="#C9CFE8"/><stop offset="1" stop-color="#8a93c4"/>
  </linearGradient>
  <radialGradient id="mglow-n" cx="50%" cy="50%" r="50%">
    <stop offset="0" stop-color="#5b7fb0" stop-opacity="0.5"/><stop offset="0.5" stop-color="#5b7fb0" stop-opacity="0.16"/><stop offset="1" stop-color="#5b7fb0" stop-opacity="0"/>
  </radialGradient>
  <linearGradient id="floorfade-n" x1="0" y1="0" x2="0" y2="1">
    <stop offset="0" stop-color="#1A1008" stop-opacity="0"/><stop offset="1" stop-color="#1A1008" stop-opacity="0.85"/>
  </linearGradient>
  <radialGradient id="vig-n" cx="50%" cy="44%" r="72%">
    <stop offset="0.55" stop-color="#1A1008" stop-opacity="0"/><stop offset="1" stop-color="#1A1008" stop-opacity="0.65"/>
  </radialGradient>
  <filter id="blur-n" x="-40%" y="-40%" width="180%" height="180%"><feGaussianBlur stdDeviation="7"/></filter>
</defs>
<rect width="2800" height="700" fill="url(#sky-n)"/>
<circle cx="1603" cy="88" r="0.64" fill="#F5E6C8" opacity="0.88"/><circle cx="222" cy="169" r="1.00" fill="#F5E6C8" opacity="0.35"/><circle cx="1396" cy="175" r="1.76" fill="#F5E6C8" opacity="0.79"/><circle cx="1405" cy="77" r="1.16" fill="#F5E6C8" opacity="0.53"/><circle cx="80" cy="179" r="1.20" fill="#F5E6C8" opacity="0.81"/><circle cx="2226" cy="235" r="1.75" fill="#F5E6C8" opacity="0.87"/><circle cx="2781" cy="288" r="1.14" fill="#F5E6C8" opacity="0.71"/><circle cx="2352" cy="83" r="0.92" fill="#F5E6C8" opacity="0.62"/><circle cx="490" cy="206" r="1.99" fill="#F5E6C8" opacity="0.67"/><circle cx="875" cy="80" r="2.16" fill="#F5E6C8" opacity="0.46"/><circle cx="169" cy="142" r="1.09" fill="#F5E6C8" opacity="0.63"/><circle cx="2111" cy="140" r="0.73" fill="#F5E6C8" opacity="0.95"/><circle cx="236" cy="318" r="0.66" fill="#F5E6C8" opacity="0.92"/><circle cx="436" cy="165" r="1.78" fill="#F5E6C8" opacity="0.71"/><circle cx="2708" cy="115" r="1.83" fill="#F5E6C8" opacity="0.35"/><circle cx="608" cy="278" r="2.13" fill="#F5E6C8" opacity="0.90"/><circle cx="49" cy="270" r="1.40" fill="#F5E6C8" opacity="0.33"/><circle cx="466" cy="98" r="2.04" fill="#F5E6C8" opacity="0.62"/><circle cx="795" cy="113" r="2.04" fill="#F5E6C8" opacity="0.50"/><circle cx="1938" cy="42" r="1.27" fill="#F5E6C8" opacity="0.71"/><circle cx="2302" cy="262" r="1.93" fill="#F5E6C8" opacity="0.34"/><circle cx="1147" cy="113" r="0.80" fill="#F5E6C8" opacity="0.34"/><circle cx="2593" cy="285" r="1.57" fill="#F5E6C8" opacity="0.79"/><circle cx="2670" cy="29" r="1.78" fill="#F5E6C8" opacity="0.35"/><circle cx="2113" cy="153" r="2.20" fill="#F5E6C8" opacity="0.45"/><circle cx="2749" cy="335" r="1.65" fill="#F5E6C8" opacity="0.60"/><circle cx="2718" cy="46" r="1.36" fill="#F5E6C8" opacity="0.27"/><circle cx="1706" cy="332" r="1.22" fill="#F5E6C8" opacity="0.78"/><circle cx="2230" cy="40" r="2.23" fill="#F5E6C8" opacity="0.31"/><circle cx="1438" cy="227" r="1.02" fill="#F5E6C8" opacity="0.67"/><circle cx="270" cy="149" r="2.23" fill="#F5E6C8" opacity="0.79"/><circle cx="2329" cy="110" r="0.92" fill="#F5E6C8" opacity="0.46"/><circle cx="1341" cy="48" r="1.02" fill="#F5E6C8" opacity="0.79"/><circle cx="1503" cy="78" r="1.87" fill="#F5E6C8" opacity="0.35"/><circle cx="1352" cy="144" r="1.37" fill="#F5E6C8" opacity="0.46"/><circle cx="165" cy="177" r="1.49" fill="#F5E6C8" opacity="0.70"/><circle cx="1152" cy="193" r="0.81" fill="#F5E6C8" opacity="0.67"/><circle cx="1152" cy="295" r="1.57" fill="#F5E6C8" opacity="0.85"/><circle cx="2512" cy="224" r="1.48" fill="#F5E6C8" opacity="0.54"/><circle cx="1747" cy="330" r="1.32" fill="#F5E6C8" opacity="0.34"/><circle cx="328" cy="35" r="2.00" fill="#F5E6C8" opacity="0.81"/><circle cx="2486" cy="28" r="0.66" fill="#F5E6C8" opacity="0.61"/><circle cx="1379" cy="173" r="0.60" fill="#F5E6C8" opacity="0.93"/><circle cx="872" cy="278" r="1.04" fill="#F5E6C8" opacity="0.88"/><circle cx="221" cy="222" r="2.08" fill="#F5E6C8" opacity="0.26"/><circle cx="522" cy="114" r="1.90" fill="#F5E6C8" opacity="0.29"/><circle cx="2502" cy="83" r="1.65" fill="#F5E6C8" opacity="0.84"/><circle cx="528" cy="216" r="1.45" fill="#F5E6C8" opacity="0.94"/><circle cx="955" cy="100" r="2.19" fill="#F5E6C8" opacity="0.87"/><circle cx="1242" cy="60" r="1.25" fill="#F5E6C8" opacity="0.93"/><circle cx="2500" cy="120" r="1.85" fill="#F5E6C8" opacity="0.56"/><circle cx="1787" cy="335" r="2.16" fill="#F5E6C8" opacity="0.55"/><circle cx="2190" cy="96" r="0.80" fill="#F5E6C8" opacity="0.45"/><circle cx="431" cy="100" r="1.34" fill="#F5E6C8" opacity="0.39"/><circle cx="1956" cy="85" r="1.23" fill="#F5E6C8" opacity="0.89"/><circle cx="277" cy="268" r="1.42" fill="#F5E6C8" opacity="0.64"/><circle cx="1281" cy="138" r="2.18" fill="#F5E6C8" opacity="0.56"/><circle cx="2468" cy="152" r="1.92" fill="#F5E6C8" opacity="0.72"/><circle cx="972" cy="247" r="2.22" fill="#F5E6C8" opacity="0.83"/><circle cx="2260" cy="332" r="2.16" fill="#F5E6C8" opacity="0.86"/><circle cx="1388" cy="260" r="1.48" fill="#F5E6C8" opacity="0.44"/><circle cx="1028" cy="160" r="2.14" fill="#F5E6C8" opacity="0.94"/><circle cx="884" cy="269" r="1.68" fill="#F5E6C8" opacity="0.54"/><circle cx="676" cy="76" r="1.20" fill="#F5E6C8" opacity="0.78"/><circle cx="215" cy="110" r="0.85" fill="#F5E6C8" opacity="0.70"/><circle cx="780" cy="337" r="0.70" fill="#F5E6C8" opacity="0.88"/><circle cx="2288" cy="131" r="1.93" fill="#F5E6C8" opacity="0.56"/><circle cx="1732" cy="328" r="0.78" fill="#F5E6C8" opacity="0.55"/><circle cx="1407" cy="51" r="1.86" fill="#F5E6C8" opacity="0.67"/><circle cx="2046" cy="83" r="1.14" fill="#F5E6C8" opacity="0.60"/><circle cx="1230" cy="33" r="2.16" fill="#F5E6C8" opacity="0.59"/><circle cx="1070" cy="287" r="1.96" fill="#F5E6C8" opacity="0.83"/><circle cx="2300" cy="134" r="1.83" fill="#F5E6C8" opacity="0.92"/><circle cx="2786" cy="185" r="0.63" fill="#F5E6C8" opacity="0.49"/><circle cx="2476" cy="121" r="1.11" fill="#F5E6C8" opacity="0.84"/><circle cx="1767" cy="205" r="0.81" fill="#F5E6C8" opacity="0.92"/><circle cx="217" cy="219" r="1.90" fill="#F5E6C8" opacity="0.39"/><circle cx="2584" cy="128" r="0.85" fill="#F5E6C8" opacity="0.41"/><circle cx="321" cy="233" r="1.21" fill="#F5E6C8" opacity="0.56"/><circle cx="2278" cy="89" r="1.12" fill="#F5E6C8" opacity="0.65"/><circle cx="1081" cy="220" r="1.22" fill="#F5E6C8" opacity="0.94"/><circle cx="457" cy="303" r="0.91" fill="#F5E6C8" opacity="0.80"/><circle cx="259" cy="311" r="1.87" fill="#F5E6C8" opacity="0.84"/><circle cx="2693" cy="304" r="1.34" fill="#F5E6C8" opacity="0.73"/><circle cx="2209" cy="139" r="1.05" fill="#F5E6C8" opacity="0.78"/><circle cx="412" cy="267" r="1.90" fill="#F5E6C8" opacity="0.55"/><circle cx="1224" cy="76" r="1.49" fill="#F5E6C8" opacity="0.65"/><circle cx="1061" cy="134" r="0.97" fill="#F5E6C8" opacity="0.32"/><circle cx="122" cy="84" r="2.10" fill="#F5E6C8" opacity="0.63"/><circle cx="4" cy="178" r="1.50" fill="#F5E6C8" opacity="0.31"/><circle cx="2491" cy="115" r="1.45" fill="#F5E6C8" opacity="0.76"/><circle cx="2748" cy="171" r="0.78" fill="#F5E6C8" opacity="0.73"/><circle cx="1006" cy="334" r="1.65" fill="#F5E6C8" opacity="0.57"/><circle cx="835" cy="233" r="1.84" fill="#F5E6C8" opacity="0.46"/><circle cx="1124" cy="315" r="0.94" fill="#F5E6C8" opacity="0.57"/><circle cx="1434" cy="247" r="0.72" fill="#F5E6C8" opacity="0.62"/><circle cx="2319" cy="22" r="1.45" fill="#F5E6C8" opacity="0.26"/><circle cx="23" cy="74" r="0.92" fill="#F5E6C8" opacity="0.42"/><circle cx="2225" cy="291" r="2.08" fill="#F5E6C8" opacity="0.35"/><circle cx="2520" cy="112" r="1.99" fill="#F5E6C8" opacity="0.78"/><circle cx="304" cy="169" r="0.60" fill="#F5E6C8" opacity="0.28"/><circle cx="2755" cy="236" r="0.66" fill="#F5E6C8" opacity="0.39"/><circle cx="1129" cy="251" r="2.12" fill="#F5E6C8" opacity="0.38"/><circle cx="1186" cy="201" r="1.41" fill="#F5E6C8" opacity="0.44"/><circle cx="1780" cy="241" r="1.32" fill="#F5E6C8" opacity="0.66"/><circle cx="2774" cy="184" r="1.37" fill="#F5E6C8" opacity="0.29"/><circle cx="1129" cy="204" r="1.14" fill="#F5E6C8" opacity="0.82"/><circle cx="1680" cy="213" r="1.67" fill="#F5E6C8" opacity="0.72"/><circle cx="2338" cy="52" r="1.15" fill="#F5E6C8" opacity="0.49"/><circle cx="575" cy="171" r="1.00" fill="#F5E6C8" opacity="0.65"/><circle cx="2414" cy="46" r="0.73" fill="#F5E6C8" opacity="0.84"/><circle cx="1646" cy="238" r="2.09" fill="#F5E6C8" opacity="0.36"/><circle cx="2334" cy="44" r="1.13" fill="#F5E6C8" opacity="0.67"/><circle cx="1157" cy="166" r="2.28" fill="#F5E6C8" opacity="0.34"/><circle cx="2437" cy="117" r="0.99" fill="#F5E6C8" opacity="0.81"/><circle cx="857" cy="56" r="1.08" fill="#F5E6C8" opacity="0.44"/><circle cx="2167" cy="26" r="1.01" fill="#F5E6C8" opacity="0.29"/><circle cx="2383" cy="186" r="1.73" fill="#F5E6C8" opacity="0.44"/><circle cx="1756" cy="289" r="1.53" fill="#F5E6C8" opacity="0.63"/><circle cx="1088" cy="56" r="1.43" fill="#F5E6C8" opacity="0.37"/><circle cx="2347" cy="77" r="1.96" fill="#F5E6C8" opacity="0.43"/><circle cx="1637" cy="143" r="0.84" fill="#F5E6C8" opacity="0.28"/><circle cx="498" cy="182" r="0.66" fill="#F5E6C8" opacity="0.73"/><circle cx="817" cy="164" r="1.27" fill="#F5E6C8" opacity="0.56"/><circle cx="1307" cy="98" r="1.31" fill="#F5E6C8" opacity="0.44"/><circle cx="2581" cy="21" r="2.10" fill="#F5E6C8" opacity="0.49"/><circle cx="2345" cy="46" r="1.29" fill="#F5E6C8" opacity="0.81"/><circle cx="2426" cy="161" r="1.60" fill="#F5E6C8" opacity="0.92"/><circle cx="290" cy="210" r="1.66" fill="#F5E6C8" opacity="0.64"/><circle cx="448" cy="177" r="0.69" fill="#F5E6C8" opacity="0.33"/><circle cx="440" cy="71" r="2.25" fill="#F5E6C8" opacity="0.93"/><circle cx="249" cy="249" r="1.69" fill="#F5E6C8" opacity="0.57"/><circle cx="2505" cy="345" r="1.97" fill="#F5E6C8" opacity="0.54"/><circle cx="2370" cy="342" r="1.72" fill="#F5E6C8" opacity="0.95"/><circle cx="1473" cy="260" r="1.77" fill="#F5E6C8" opacity="0.45"/><circle cx="2475" cy="271" r="2.09" fill="#F5E6C8" opacity="0.64"/><circle cx="1025" cy="336" r="1.13" fill="#F5E6C8" opacity="0.33"/><circle cx="456" cy="95" r="1.25" fill="#F5E6C8" opacity="0.25"/><circle cx="544" cy="348" r="1.87" fill="#F5E6C8" opacity="0.41"/><circle cx="662" cy="116" r="1.75" fill="#F5E6C8" opacity="0.37"/><circle cx="811" cy="31" r="1.49" fill="#F5E6C8" opacity="0.28"/><circle cx="585" cy="53" r="1.01" fill="#F5E6C8" opacity="0.38"/><circle cx="2581" cy="152" r="1.51" fill="#F5E6C8" opacity="0.62"/><circle cx="2120" cy="48" r="1.28" fill="#F5E6C8" opacity="0.71"/><circle cx="2647" cy="67" r="1.88" fill="#F5E6C8" opacity="0.58"/><circle cx="1484" cy="83" r="2.08" fill="#F5E6C8" opacity="0.40"/><circle cx="1629" cy="329" r="1.21" fill="#F5E6C8" opacity="0.35"/><circle cx="878" cy="218" r="1.68" fill="#F5E6C8" opacity="0.39"/><circle cx="926" cy="29" r="1.72" fill="#F5E6C8" opacity="0.59"/><circle cx="668" cy="49" r="0.65" fill="#F5E6C8" opacity="0.46"/><circle cx="1489" cy="61" r="0.96" fill="#F5E6C8" opacity="0.46"/>
<g stroke="#7fd4d4" stroke-width="1" opacity="0.5"><line x1="714" y1="195" x2="491" y2="158"/><line x1="491" y1="158" x2="569" y2="252"/><line x1="569" y1="252" x2="412" y2="160"/><line x1="412" y1="160" x2="635" y2="200"/></g><g opacity="0.9"><circle cx="714" cy="195" r="2.4" fill="#7fd4d4"/><circle cx="491" cy="158" r="2.4" fill="#7fd4d4"/><circle cx="569" cy="252" r="2.4" fill="#7fd4d4"/><circle cx="412" cy="160" r="2.4" fill="#7fd4d4"/><circle cx="635" cy="200" r="2.4" fill="#7fd4d4"/></g>
<circle cx="1980" cy="250" r="288" fill="url(#mglow-n)" opacity="1"/>
     <circle cx="1980" cy="250" r="96" fill="url(#moon-n)"/><circle cx="720" cy="232" r="138" fill="url(#mglow-n)" opacity="0.7"/>
     <circle cx="720" cy="232" r="46" fill="url(#moon-n)"/>
<g stroke="#7fd4d4" stroke-width="1.4" opacity="0.45"><line x1="1400" y1="380" x2="-1400" y2="700"/><line x1="1400" y1="380" x2="-1250" y2="700"/><line x1="1400" y1="380" x2="-1100" y2="700"/><line x1="1400" y1="380" x2="-950" y2="700"/><line x1="1400" y1="380" x2="-800" y2="700"/><line x1="1400" y1="380" x2="-650" y2="700"/><line x1="1400" y1="380" x2="-500" y2="700"/><line x1="1400" y1="380" x2="-350" y2="700"/><line x1="1400" y1="380" x2="-200" y2="700"/><line x1="1400" y1="380" x2="-50" y2="700"/><line x1="1400" y1="380" x2="100" y2="700"/><line x1="1400" y1="380" x2="250" y2="700"/><line x1="1400" y1="380" x2="400" y2="700"/><line x1="1400" y1="380" x2="550" y2="700"/><line x1="1400" y1="380" x2="700" y2="700"/><line x1="1400" y1="380" x2="850" y2="700"/><line x1="1400" y1="380" x2="1000" y2="700"/><line x1="1400" y1="380" x2="1150" y2="700"/><line x1="1400" y1="380" x2="1300" y2="700"/><line x1="1400" y1="380" x2="1450" y2="700"/><line x1="1400" y1="380" x2="1600" y2="700"/><line x1="1400" y1="380" x2="1750" y2="700"/><line x1="1400" y1="380" x2="1900" y2="700"/><line x1="1400" y1="380" x2="2050" y2="700"/><line x1="1400" y1="380" x2="2200" y2="700"/><line x1="1400" y1="380" x2="2350" y2="700"/><line x1="1400" y1="380" x2="2500" y2="700"/><line x1="1400" y1="380" x2="2650" y2="700"/><line x1="1400" y1="380" x2="2800" y2="700"/><line x1="1400" y1="380" x2="2950" y2="700"/><line x1="1400" y1="380" x2="3100" y2="700"/><line x1="1400" y1="380" x2="3250" y2="700"/><line x1="1400" y1="380" x2="3400" y2="700"/><line x1="1400" y1="380" x2="3550" y2="700"/><line x1="1400" y1="380" x2="3700" y2="700"/><line x1="1400" y1="380" x2="3850" y2="700"/><line x1="1400" y1="380" x2="4000" y2="700"/><line x1="1400" y1="380" x2="4150" y2="700"/><line x1="0" y1="384" x2="2800" y2="384"/><line x1="0" y1="392" x2="2800" y2="392"/><line x1="0" y1="403" x2="2800" y2="403"/><line x1="0" y1="418" x2="2800" y2="418"/><line x1="0" y1="438" x2="2800" y2="438"/><line x1="0" y1="464" x2="2800" y2="464"/><line x1="0" y1="498" x2="2800" y2="498"/><line x1="0" y1="542" x2="2800" y2="542"/><line x1="0" y1="598" x2="2800" y2="598"/><line x1="0" y1="668" x2="2800" y2="668"/></g>
<rect x="0" y="380" width="2800" height="320" fill="url(#floorfade-n)"/>
<rect x="0" y="377" width="2800" height="6" fill="#7fd4d4" opacity="0.5" filter="url(#blur-n)"/>
<path d="M0 398 L0 354 L156 377 L311 382 L467 382 L622 366 L778 383 L933 357 L1089 355 L1244 366 L1400 376 L1556 373 L1711 378 L1867 381 L2022 358 L2178 353 L2333 371 L2489 355 L2644 377 L2800 383 L2800 460 L0 460 Z" fill="#120c14"/>
<rect width="2800" height="700" fill="url(#vig-n)"/>
</svg>
