<svg xmlns="http://www.w3.org/2000/svg" viewBox="0 0 1600 1000" preserveAspectRatio="xMidYMid slice" role="img" aria-label="Futuristic desert landscape with a retro sun and tech grid">
<defs>
  <linearGradient id="sky-b" x1="0" y1="0" x2="0" y2="1">
    <stop offset="0" stop-color="#1a0f10"/>
    <stop offset="0.55" stop-color="#2c1a12"/>
    <stop offset="0.78" stop-color="#3a2410"/>
    <stop offset="1" stop-color="#1A1008"/>
  </linearGradient>
  <linearGradient id="sun-b" x1="0" y1="0" x2="0" y2="1">
    <stop offset="0" stop-color="#FFE3A6"/>
    <stop offset="0.5" stop-color="#D4822A"/>
    <stop offset="1" stop-color="#A0522D"/>
  </linearGradient>
  <radialGradient id="glow-b" cx="50%" cy="50%" r="50%">
    <stop offset="0" stop-color="#A0522D" stop-opacity="0.55"/>
    <stop offset="0.45" stop-color="#A0522D" stop-opacity="0.20"/>
    <stop offset="1" stop-color="#A0522D" stop-opacity="0"/>
  </radialGradient>
  <radialGradient id="vig-b" cx="50%" cy="46%" r="75%">
    <stop offset="0.55" stop-color="#1A1008" stop-opacity="0"/>
    <stop offset="1" stop-color="#1A1008" stop-opacity="0.7"/>
  </radialGradient>
  <linearGradient id="floorfade-b" x1="0" y1="0" x2="0" y2="1">
    <stop offset="0" stop-color="#1A1008" stop-opacity="0"/>
    <stop offset="1" stop-color="#1A1008" stop-opacity="0.85"/>
  </linearGradient>
  <filter id="blur-b" x="-40%" y="-40%" width="180%" height="180%">
    <feGaussianBlur stdDeviation="9"/>
  </filter>
  <mask id="sunmask-b">
    <circle cx="480" cy="520" r="178" fill="#fff"/>
    <rect x="292" y="560" width="376" height="6" fill="#000"/><rect x="292" y="580" width="376" height="7" fill="#000"/><rect x="292" y="602" width="376" height="9" fill="#000"/><rect x="292" y="628" width="376" height="11" fill="#000"/><rect x="292" y="658" width="376" height="13" fill="#000"/><rect x="292" y="692" width="376" height="16" fill="#000"/><rect x="292" y="730" width="376" height="20" fill="#000"/>
  </mask>
</defs>

<rect width="1600" height="1000" fill="url(#sky-b)"/>
<circle cx="1592" cy="262" r="1.71" fill="#F5E6C8" opacity="0.60"/><circle cx="1457" cy="170" r="2.24" fill="#F5E6C8" opacity="0.52"/><circle cx="861" cy="213" r="0.84" fill="#F5E6C8" opacity="0.58"/><circle cx="1201" cy="370" r="1.17" fill="#F5E6C8" opacity="0.45"/><circle cx="276" cy="164" r="1.34" fill="#F5E6C8" opacity="0.59"/><circle cx="210" cy="415" r="1.34" fill="#F5E6C8" opacity="0.94"/><circle cx="1460" cy="272" r="1.54" fill="#F5E6C8" opacity="0.57"/><circle cx="1334" cy="54" r="0.83" fill="#F5E6C8" opacity="0.36"/><circle cx="1110" cy="37" r="2.26" fill="#F5E6C8" opacity="0.62"/><circle cx="530" cy="213" r="2.26" fill="#F5E6C8" opacity="0.43"/><circle cx="1247" cy="64" r="1.38" fill="#F5E6C8" opacity="0.33"/><circle cx="1492" cy="283" r="0.88" fill="#F5E6C8" opacity="0.93"/><circle cx="211" cy="121" r="0.67" fill="#F5E6C8" opacity="0.45"/><circle cx="1589" cy="121" r="1.47" fill="#F5E6C8" opacity="0.28"/><circle cx="56" cy="479" r="1.19" fill="#F5E6C8" opacity="0.39"/><circle cx="1342" cy="48" r="1.38" fill="#F5E6C8" opacity="0.45"/><circle cx="794" cy="248" r="1.36" fill="#F5E6C8" opacity="0.28"/><circle cx="1064" cy="330" r="1.75" fill="#F5E6C8" opacity="0.58"/><circle cx="1191" cy="196" r="2.14" fill="#F5E6C8" opacity="0.89"/><circle cx="1265" cy="348" r="0.75" fill="#F5E6C8" opacity="0.54"/><circle cx="1575" cy="326" r="0.91" fill="#F5E6C8" opacity="0.26"/><circle cx="910" cy="110" r="2.21" fill="#F5E6C8" opacity="0.61"/><circle cx="1556" cy="45" r="2.25" fill="#F5E6C8" opacity="0.65"/><circle cx="1338" cy="439" r="0.85" fill="#F5E6C8" opacity="0.44"/><circle cx="1068" cy="248" r="2.20" fill="#F5E6C8" opacity="0.83"/><circle cx="1065" cy="73" r="1.31" fill="#F5E6C8" opacity="0.40"/><circle cx="1476" cy="204" r="0.98" fill="#F5E6C8" opacity="0.45"/><circle cx="1012" cy="113" r="1.50" fill="#F5E6C8" opacity="0.46"/><circle cx="150" cy="230" r="1.22" fill="#F5E6C8" opacity="0.39"/><circle cx="891" cy="201" r="1.87" fill="#F5E6C8" opacity="0.73"/><circle cx="862" cy="164" r="2.28" fill="#F5E6C8" opacity="0.81"/><circle cx="1244" cy="41" r="0.87" fill="#F5E6C8" opacity="0.92"/><circle cx="1501" cy="385" r="0.63" fill="#F5E6C8" opacity="0.54"/><circle cx="1176" cy="63" r="2.05" fill="#F5E6C8" opacity="0.47"/><circle cx="1456" cy="445" r="0.73" fill="#F5E6C8" opacity="0.43"/><circle cx="392" cy="150" r="0.60" fill="#F5E6C8" opacity="0.43"/><circle cx="895" cy="108" r="1.53" fill="#F5E6C8" opacity="0.67"/><circle cx="185" cy="148" r="0.87" fill="#F5E6C8" opacity="0.71"/><circle cx="1004" cy="175" r="1.26" fill="#F5E6C8" opacity="0.40"/><circle cx="1027" cy="52" r="2.15" fill="#F5E6C8" opacity="0.65"/><circle cx="1509" cy="331" r="1.87" fill="#F5E6C8" opacity="0.70"/>



<!-- glow -->
<circle cx="480" cy="520" r="430" fill="url(#glow-b)"/>

<!-- perspective tech grid -->
<g stroke="#D4822A" stroke-width="1.4" opacity="0.5"><line x1="480" y1="560" x2="-1120" y2="1000"/><line x1="480" y1="560" x2="-970" y2="1000"/><line x1="480" y1="560" x2="-820" y2="1000"/><line x1="480" y1="560" x2="-670" y2="1000"/><line x1="480" y1="560" x2="-520" y2="1000"/><line x1="480" y1="560" x2="-370" y2="1000"/><line x1="480" y1="560" x2="-220" y2="1000"/><line x1="480" y1="560" x2="-70" y2="1000"/><line x1="480" y1="560" x2="80" y2="1000"/><line x1="480" y1="560" x2="230" y2="1000"/><line x1="480" y1="560" x2="380" y2="1000"/><line x1="480" y1="560" x2="530" y2="1000"/><line x1="480" y1="560" x2="680" y2="1000"/><line x1="480" y1="560" x2="830" y2="1000"/><line x1="480" y1="560" x2="980" y2="1000"/><line x1="480" y1="560" x2="1130" y2="1000"/><line x1="480" y1="560" x2="1280" y2="1000"/><line x1="480" y1="560" x2="1430" y2="1000"/><line x1="480" y1="560" x2="1580" y2="1000"/><line x1="480" y1="560" x2="1730" y2="1000"/><line x1="480" y1="560" x2="1880" y2="1000"/><line x1="480" y1="560" x2="2030" y2="1000"/><line x1="0" y1="566" x2="1600" y2="566"/><line x1="0" y1="576" x2="1600" y2="576"/><line x1="0" y1="590" x2="1600" y2="590"/><line x1="0" y1="610" x2="1600" y2="610"/><line x1="0" y1="638" x2="1600" y2="638"/><line x1="0" y1="676" x2="1600" y2="676"/><line x1="0" y1="726" x2="1600" y2="726"/><line x1="0" y1="792" x2="1600" y2="792"/><line x1="0" y1="878" x2="1600" y2="878"/><line x1="0" y1="985" x2="1600" y2="985"/></g>
<g stroke="#7fd4d4" stroke-width="1.2" opacity="0.18"><line x1="0" y1="566" x2="1600" y2="566"/></g>
<rect x="0" y="560" width="1600" height="440" fill="url(#floorfade-b)"/>

<!-- horizon glow line -->
<rect x="0" y="557" width="1600" height="6" fill="#D4822A" opacity="0.6" filter="url(#blur-b)"/>

<!-- dune horizon -->
<path d="M0 580 L0 535 L200 536 L400 553 L600 538 L800 534 L1000 532 L1200 532 L1400 539 L1600 537 L1600 620 L0 620 Z" fill="#140c05"/>

<!-- sun / moon -->
<circle cx="480" cy="520" r="178" fill="url(#sun-b)" mask="url(#sunmask-b)"/>


<rect width="1600" height="1000" fill="url(#vig-b)"/>
</svg>
